<?xml version="1.0" encoding="UTF-8"?>
<svg xmlns="http://www.w3.org/2000/svg" width="1280" height="718" viewBox="0 0 1280 718">
  <path d="M 1279 297 L 1272 299 L 1269 301 L 1266 301 L 1265 302 L 1257 304 L 1256 305 L 1248 306 L 1247 307 L 1243 307 L 1242 308 L 1238 308 L 1237 309 L 1233 309 L 1232 310 L 1228 310 L 1227 311 L 1221 311 L 1220 312 L 1207 312 L 1206 313 L 1201 313 L 1200 312 L 1183 312 L 1182 311 L 1177 311 L 1176 310 L 1172 310 L 1167 308 L 1163 308 L 1159 306 L 1155 306 L 1154 305 L 1149 304 L 1146 302 L 1141 301 L 1138 299 L 1136 299 L 1122 292 L 1120 292 L 1116 289 L 1114 289 L 1108 285 L 1106 285 L 1104 283 L 1102 283 L 1100 281 L 1096 280 L 1094 278 L 1088 275 L 1086 275 L 1084 273 L 1080 272 L 1078 270 L 1076 270 L 1072 267 L 1070 267 L 1057 260 L 1055 260 L 1041 253 L 1039 253 L 1031 249 L 1026 248 L 1023 246 L 1018 245 L 1015 243 L 1008 242 L 1005 240 L 1002 240 L 999 238 L 990 237 L 986 235 L 978 234 L 977 233 L 973 233 L 972 232 L 968 232 L 967 231 L 956 231 L 955 230 L 924 230 L 923 231 L 914 231 L 913 232 L 899 234 L 895 236 L 885 238 L 877 242 L 872 243 L 846 257 L 843 260 L 840 261 L 837 264 L 825 272 L 813 283 L 812 283 L 783 311 L 783 312 L 762 335 L 758 335 L 756 333 L 748 317 L 748 312 L 751 307 L 760 297 L 769 285 L 771 281 L 780 269 L 781 266 L 789 254 L 794 243 L 796 241 L 796 239 L 805 221 L 805 218 L 809 210 L 809 208 L 811 204 L 811 201 L 813 197 L 813 194 L 815 190 L 816 182 L 817 181 L 817 177 L 818 176 L 818 172 L 819 171 L 819 166 L 820 165 L 820 158 L 821 157 L 821 150 L 822 149 L 822 110 L 821 109 L 821 103 L 820 102 L 819 92 L 818 91 L 818 88 L 816 84 L 816 81 L 815 80 L 814 75 L 805 56 L 798 46 L 789 37 L 782 32 L 774 28 L 772 28 L 769 26 L 766 26 L 765 25 L 761 25 L 760 24 L 746 24 L 745 25 L 736 26 L 733 28 L 728 29 L 719 34 L 711 41 L 710 41 L 703 48 L 703 49 L 696 57 L 685 78 L 684 83 L 681 88 L 681 90 L 678 97 L 678 100 L 676 104 L 676 108 L 674 112 L 674 117 L 673 118 L 673 122 L 672 123 L 671 142 L 670 143 L 670 178 L 671 179 L 671 191 L 672 192 L 673 209 L 674 210 L 675 220 L 676 221 L 676 225 L 678 230 L 678 235 L 679 236 L 682 251 L 683 252 L 684 258 L 689 271 L 689 274 L 691 277 L 693 285 L 695 288 L 695 291 L 698 296 L 699 304 L 697 308 L 693 312 L 688 315 L 682 321 L 681 321 L 676 326 L 675 326 L 658 340 L 609 372 L 590 387 L 586 387 L 582 382 L 577 371 L 575 369 L 570 358 L 568 356 L 564 348 L 564 342 L 582 321 L 597 299 L 609 276 L 609 274 L 613 267 L 614 262 L 619 251 L 619 248 L 621 244 L 621 241 L 623 237 L 623 234 L 624 233 L 624 230 L 626 225 L 626 221 L 627 220 L 627 216 L 628 215 L 628 210 L 629 209 L 629 203 L 630 202 L 630 190 L 631 189 L 631 158 L 630 157 L 630 145 L 629 144 L 629 139 L 628 138 L 628 134 L 627 133 L 625 122 L 624 121 L 622 113 L 620 110 L 620 108 L 613 94 L 601 77 L 587 65 L 575 59 L 573 59 L 569 56 L 568 57 L 564 57 L 563 56 L 546 57 L 545 58 L 542 58 L 541 59 L 536 60 L 526 65 L 523 68 L 519 70 L 504 86 L 503 89 L 498 96 L 488 118 L 488 120 L 482 136 L 482 140 L 481 141 L 481 145 L 480 146 L 479 155 L 478 156 L 478 164 L 477 165 L 477 201 L 478 202 L 478 212 L 479 213 L 480 228 L 481 229 L 481 234 L 482 235 L 484 249 L 486 253 L 486 257 L 487 258 L 488 265 L 491 272 L 491 275 L 492 276 L 495 287 L 497 290 L 500 301 L 502 304 L 502 306 L 504 309 L 506 316 L 509 321 L 509 323 L 512 328 L 512 335 L 508 340 L 485 355 L 453 371 L 447 371 L 445 370 L 430 355 L 429 355 L 421 348 L 418 347 L 411 342 L 401 337 L 399 337 L 386 332 L 382 332 L 381 331 L 373 330 L 372 329 L 361 329 L 360 328 L 336 328 L 335 327 L 333 327 L 331 329 L 326 329 L 321 331 L 317 331 L 316 332 L 309 333 L 308 334 L 302 335 L 301 336 L 296 337 L 293 339 L 285 341 L 278 345 L 276 345 L 266 350 L 264 352 L 260 353 L 258 355 L 248 360 L 217 382 L 212 387 L 211 387 L 206 392 L 199 397 L 191 405 L 190 405 L 130 463 L 129 463 L 124 468 L 120 470 L 111 478 L 108 479 L 105 482 L 96 487 L 91 491 L 68 502 L 66 502 L 53 507 L 46 508 L 45 509 L 35 510 L 34 511 L 28 511 L 27 512 L 0 512 L 0 551 L 27 551 L 28 550 L 43 549 L 44 548 L 48 548 L 53 546 L 57 546 L 61 544 L 68 543 L 69 542 L 77 540 L 80 538 L 88 536 L 93 533 L 95 533 L 97 531 L 99 531 L 111 525 L 116 521 L 119 520 L 134 510 L 150 497 L 151 497 L 224 427 L 225 427 L 231 421 L 246 410 L 250 406 L 257 402 L 260 399 L 263 398 L 269 393 L 274 391 L 279 387 L 281 387 L 291 381 L 293 381 L 300 377 L 302 377 L 318 371 L 321 371 L 326 369 L 331 369 L 332 368 L 338 368 L 339 367 L 363 367 L 364 368 L 369 368 L 370 369 L 380 371 L 395 378 L 403 384 L 403 388 L 397 392 L 395 392 L 391 394 L 388 394 L 387 395 L 384 395 L 374 399 L 371 399 L 370 400 L 365 401 L 362 403 L 355 405 L 350 408 L 348 408 L 346 410 L 342 411 L 321 425 L 304 442 L 292 460 L 288 468 L 287 473 L 285 476 L 285 478 L 283 482 L 282 490 L 281 491 L 281 495 L 280 496 L 280 502 L 279 503 L 279 525 L 280 526 L 280 532 L 281 533 L 283 547 L 284 548 L 285 553 L 287 556 L 287 558 L 292 568 L 300 579 L 309 588 L 310 588 L 318 595 L 320 595 L 322 597 L 335 603 L 337 603 L 344 606 L 348 606 L 349 607 L 370 608 L 371 607 L 379 607 L 380 606 L 384 606 L 388 604 L 391 604 L 394 602 L 402 600 L 416 593 L 436 578 L 437 576 L 440 574 L 447 566 L 452 558 L 455 555 L 469 527 L 469 525 L 472 519 L 472 516 L 474 512 L 475 505 L 476 504 L 477 494 L 478 493 L 478 485 L 479 484 L 479 460 L 478 459 L 478 450 L 477 449 L 477 444 L 476 443 L 476 439 L 475 438 L 475 434 L 474 433 L 472 422 L 469 415 L 469 407 L 471 405 L 485 398 L 487 398 L 489 396 L 498 392 L 513 382 L 516 381 L 527 373 L 532 372 L 535 375 L 544 393 L 546 395 L 546 397 L 548 399 L 552 408 L 555 412 L 555 419 L 538 440 L 527 457 L 514 482 L 514 484 L 511 489 L 511 491 L 509 494 L 508 499 L 506 502 L 506 504 L 503 511 L 503 514 L 499 525 L 499 529 L 498 530 L 496 544 L 495 545 L 494 558 L 493 559 L 493 569 L 492 570 L 492 601 L 493 602 L 494 615 L 495 616 L 495 620 L 498 628 L 499 635 L 501 638 L 501 640 L 507 653 L 509 655 L 511 660 L 515 666 L 521 672 L 521 673 L 529 680 L 543 688 L 545 688 L 548 690 L 551 690 L 552 691 L 556 691 L 557 692 L 570 693 L 571 692 L 578 692 L 579 691 L 587 690 L 588 689 L 593 688 L 607 681 L 616 673 L 617 673 L 629 659 L 640 639 L 640 637 L 642 634 L 642 632 L 644 629 L 644 627 L 648 617 L 648 613 L 649 612 L 650 604 L 651 603 L 651 597 L 652 596 L 652 587 L 653 586 L 653 563 L 652 562 L 652 552 L 651 551 L 651 545 L 650 544 L 650 539 L 649 538 L 649 534 L 648 533 L 648 529 L 647 528 L 646 520 L 644 516 L 642 506 L 641 505 L 639 497 L 637 494 L 635 486 L 632 481 L 632 479 L 626 467 L 626 465 L 623 460 L 623 458 L 621 456 L 620 452 L 607 428 L 607 423 L 612 418 L 613 418 L 629 405 L 692 363 L 705 352 L 706 352 L 712 346 L 714 345 L 718 345 L 720 347 L 728 364 L 730 366 L 730 368 L 731 369 L 731 376 L 730 377 L 730 379 L 719 395 L 710 413 L 707 417 L 707 419 L 702 428 L 700 435 L 697 440 L 694 451 L 691 457 L 689 467 L 687 471 L 687 474 L 685 479 L 685 483 L 684 484 L 683 494 L 682 495 L 681 509 L 680 510 L 680 519 L 679 520 L 679 559 L 680 560 L 680 569 L 681 570 L 681 575 L 682 576 L 682 580 L 683 581 L 683 585 L 684 586 L 685 593 L 686 594 L 689 605 L 691 608 L 691 610 L 699 626 L 709 640 L 720 650 L 736 658 L 744 659 L 745 660 L 751 660 L 752 661 L 763 661 L 764 660 L 770 660 L 771 659 L 775 659 L 776 658 L 781 657 L 784 655 L 786 655 L 788 653 L 793 651 L 799 647 L 811 635 L 813 631 L 816 628 L 828 605 L 829 600 L 831 597 L 831 595 L 834 588 L 835 581 L 836 580 L 836 576 L 837 575 L 837 571 L 838 570 L 838 565 L 839 564 L 839 557 L 840 556 L 840 520 L 839 519 L 839 512 L 838 511 L 838 506 L 837 505 L 837 501 L 836 500 L 835 493 L 834 492 L 831 481 L 829 478 L 828 473 L 824 467 L 816 451 L 814 449 L 802 425 L 802 423 L 799 419 L 799 417 L 791 402 L 791 400 L 789 398 L 785 390 L 785 388 L 781 382 L 780 375 L 792 359 L 805 345 L 805 344 L 816 333 L 816 332 L 837 312 L 838 312 L 844 306 L 853 300 L 857 296 L 869 288 L 876 285 L 882 281 L 884 281 L 888 278 L 890 278 L 893 276 L 895 276 L 902 273 L 909 272 L 910 271 L 921 270 L 922 269 L 932 269 L 933 268 L 948 268 L 949 269 L 967 270 L 968 271 L 973 271 L 974 272 L 978 272 L 979 273 L 982 273 L 983 274 L 998 277 L 999 278 L 1025 286 L 1028 288 L 1035 290 L 1040 293 L 1047 295 L 1067 305 L 1069 305 L 1088 315 L 1090 315 L 1112 326 L 1114 326 L 1117 328 L 1119 328 L 1124 331 L 1129 332 L 1132 334 L 1140 336 L 1143 338 L 1145 338 L 1149 340 L 1153 340 L 1154 341 L 1156 341 L 1160 343 L 1163 343 L 1164 344 L 1167 344 L 1168 345 L 1179 346 L 1180 347 L 1186 347 L 1187 348 L 1195 348 L 1196 349 L 1227 349 L 1228 348 L 1234 348 L 1235 347 L 1239 347 L 1240 346 L 1245 346 L 1246 345 L 1253 344 L 1254 343 L 1265 340 L 1268 338 L 1270 338 L 1275 335 L 1279 335 Z
M 577 456 L 583 464 L 587 472 L 587 474 L 591 480 L 591 482 L 596 492 L 596 494 L 602 507 L 602 510 L 604 513 L 604 515 L 607 522 L 607 525 L 608 526 L 608 529 L 610 534 L 610 538 L 611 539 L 611 543 L 612 544 L 612 548 L 613 549 L 613 555 L 614 556 L 614 593 L 613 594 L 613 599 L 612 600 L 612 604 L 611 605 L 610 612 L 608 615 L 607 620 L 600 634 L 595 641 L 589 647 L 577 654 L 574 654 L 573 655 L 564 655 L 556 652 L 546 643 L 543 639 L 541 634 L 539 632 L 539 630 L 537 627 L 537 625 L 535 621 L 535 618 L 534 617 L 534 614 L 533 613 L 532 604 L 531 603 L 531 567 L 532 566 L 532 558 L 533 557 L 533 551 L 534 550 L 534 546 L 535 545 L 535 540 L 537 535 L 537 531 L 539 527 L 539 524 L 540 523 L 545 506 L 558 479 L 560 477 L 564 469 L 570 460 L 574 456 Z
M 430 423 L 433 426 L 433 428 L 436 435 L 436 438 L 438 442 L 439 453 L 440 454 L 440 462 L 441 463 L 441 478 L 440 479 L 440 489 L 439 490 L 439 495 L 438 496 L 436 507 L 435 508 L 434 513 L 431 518 L 431 520 L 422 536 L 412 547 L 412 548 L 402 557 L 385 566 L 375 568 L 374 569 L 358 569 L 357 568 L 349 567 L 341 563 L 335 559 L 326 548 L 322 540 L 322 538 L 319 531 L 319 528 L 318 527 L 318 522 L 317 521 L 317 504 L 318 503 L 318 498 L 319 497 L 319 494 L 320 493 L 322 485 L 327 475 L 335 464 L 342 457 L 343 457 L 351 450 L 359 446 L 361 444 L 363 444 L 368 441 L 370 441 L 373 439 L 375 439 L 378 437 L 380 437 L 390 433 L 393 433 L 400 430 L 403 430 L 404 429 L 406 429 L 410 427 L 413 427 L 417 425 L 420 425 L 424 423 Z
M 751 417 L 756 417 L 758 419 L 765 433 L 767 435 L 786 475 L 786 477 L 788 480 L 788 483 L 790 486 L 790 488 L 794 498 L 794 502 L 795 503 L 797 513 L 798 514 L 798 519 L 799 520 L 799 524 L 800 525 L 800 534 L 801 535 L 801 560 L 800 561 L 800 568 L 799 569 L 798 577 L 797 578 L 794 589 L 786 605 L 783 609 L 774 618 L 771 619 L 769 621 L 767 621 L 763 623 L 752 623 L 749 621 L 747 621 L 741 617 L 733 608 L 728 599 L 728 597 L 723 586 L 723 583 L 722 582 L 721 575 L 720 574 L 720 570 L 719 569 L 719 565 L 718 564 L 718 557 L 717 556 L 717 522 L 718 521 L 718 511 L 719 510 L 719 504 L 720 503 L 720 498 L 721 497 L 723 483 L 724 482 L 724 479 L 726 475 L 726 472 L 727 471 L 731 457 L 733 454 L 733 452 L 735 449 L 737 442 L 747 422 Z
M 562 96 L 567 98 L 575 106 L 584 121 L 584 123 L 588 133 L 588 137 L 590 141 L 590 145 L 591 146 L 591 153 L 592 154 L 592 161 L 593 162 L 593 187 L 592 188 L 592 195 L 591 196 L 590 209 L 589 210 L 589 214 L 588 215 L 588 218 L 587 219 L 584 234 L 583 235 L 581 243 L 579 246 L 578 251 L 575 256 L 575 258 L 562 283 L 555 292 L 553 296 L 548 301 L 543 301 L 541 299 L 538 293 L 533 276 L 531 273 L 531 270 L 528 263 L 528 260 L 526 257 L 526 253 L 524 249 L 524 246 L 522 241 L 522 237 L 520 232 L 520 226 L 519 225 L 519 221 L 518 220 L 517 205 L 516 204 L 516 173 L 517 172 L 517 162 L 518 161 L 518 155 L 519 154 L 519 150 L 520 149 L 520 145 L 523 137 L 523 134 L 525 131 L 526 126 L 535 109 L 544 100 L 549 97 L 551 97 L 552 96 Z
M 756 62 L 762 65 L 769 72 L 777 86 L 777 88 L 781 98 L 782 108 L 783 109 L 783 117 L 784 118 L 784 143 L 783 144 L 782 161 L 781 162 L 780 171 L 779 172 L 777 183 L 774 190 L 774 193 L 772 196 L 770 204 L 765 214 L 765 216 L 755 236 L 753 238 L 751 243 L 749 245 L 748 248 L 742 257 L 733 268 L 729 268 L 727 266 L 727 264 L 724 257 L 723 250 L 719 240 L 719 237 L 718 236 L 717 229 L 716 228 L 716 224 L 714 219 L 713 210 L 712 209 L 712 203 L 711 202 L 711 196 L 710 195 L 710 186 L 709 185 L 709 166 L 708 165 L 708 157 L 709 156 L 709 139 L 710 138 L 710 132 L 711 131 L 712 120 L 713 119 L 715 108 L 717 104 L 717 101 L 721 93 L 721 91 L 729 77 L 742 65 L 749 62 Z" fill="#0c2350" fill-rule="evenodd"/>
</svg>

